<?xml version="1.0" encoding="UTF-8"?>
<svg id="Layer_1" data-name="Layer 1" xmlns="http://www.w3.org/2000/svg" viewBox="0 0 904.85 256.08">
  <defs>
    <style>
      .cls-1, .cls-2 {
        fill: #765979;
      }

      .cls-2 {
        font-family: Gotham-UltraItalic, 'Gotham Ultra';
        font-size: 128px;
        font-style: italic;
      }

      .cls-3 {
        letter-spacing: 0em;
      }
    </style>
  </defs>
  <path class="cls-1" d="M194.27,131.13c24.84-18.32,46.56-32.77,62.11-60.5,9.06-16.15,27.35-54.81,5.34-66.02-10.05-5.12-61.17-4.87-73.43-2.02-16.52,3.84-35.22,25.28-50.83,32.92C118.11,27.94,100.64,4.52,79.98,1.59,63.98-.68,9.56-2.88,2.35,12.92c-14.8,32.44,43.91,106.09,76.43,116.82-30.62,13.97-60.25,43.71-71.5,75.65-6.5,18.45-15.06,46.58,12.23,49.96,12.2,1.52,54.83.41,65.86-.78,15.69-1.7,40.93-32.09,52.41-31.16l42.64,27.34c4.01,2.57,8.71,3.41,13.47,3.79,23.2,1.88,72.86,3.99,77.05-10.68,9.88-34.55-40.92-105.13-76.65-112.72ZM26.83,27.31h56.29c3.14,0,39.62,33.07,52.4,33.79,14.31.81,49.53-33.79,54.41-33.79h56.29c-22.54,118.25-197.04,118.45-219.39,0ZM241.89,232.14h-46.19c-9.83,0-41.82-34.11-57.79-34.83-19.4-.87-49.94,34.83-60.57,34.83H26.83c1.36-36.77,38.54-73.98,72.31-84.97,52.83-17.19,108.46,2.88,136.02,51.31,2.33,4.1,17.86,33.66,6.73,33.66Z"/>
  <text class="cls-2" transform="translate(276.65 170.03)"><tspan x="0" y="0">Dja</tspan><tspan class="cls-3" x="211.84" y="0">s</tspan><tspan x="279.93" y="0">sApp</tspan></text>
</svg>